P1
10 10
0000000000
0000000000
0001100000
0000010000
0001110000
0000011000
0000001100
0000000110
0000000010
0000000000
